HIERARCHY
ROOT Hips
{
	OFFSET 0.000000 0.000000 0.000000 
	CHANNELS 6 Xposition Yposition Zposition Zrotation Yrotation Xrotation
	JOINT LeftUpLeg
	{
		OFFSET 1.363060 -1.794630 0.839290 
		CHANNELS 3 Zrotation Yrotation Xrotation
		JOINT LeftLeg
		{
			OFFSET 2.448110 -6.726130 0.000000 
			CHANNELS 3 Zrotation Yrotation Xrotation
			JOINT LeftFoot
			{
				OFFSET 2.562200 -7.039590 0.000000 
				CHANNELS 3 Zrotation Yrotation Xrotation
				JOINT LeftToeBase
				{
					OFFSET 0.157640 -0.433110 2.322550 
					CHANNELS 3 Zrotation Yrotation Xrotation
					End Site
					{
						OFFSET 0.000000 0.000000 0.000000 
					}
				}
			}
		}
	}
	JOINT RightUpLeg
	{
		OFFSET -1.305520 -1.794630 0.839290 
		CHANNELS 3 Zrotation Yrotation Xrotation
		JOINT RightLeg
		{
			OFFSET -2.542530 -6.985550 0.000000 
			CHANNELS 3 Zrotation Yrotation Xrotation
			JOINT RightFoot
			{
				OFFSET -2.568260 -7.056230 0.000000 
				CHANNELS 3 Zrotation Yrotation Xrotation
				JOINT RightToeBase
				{
					OFFSET -0.164730 -0.452590 2.363150 
					CHANNELS 3 Zrotation Yrotation Xrotation
					End Site
					{
						OFFSET 0.000000 0.000000 0.000000 
					}
				}
			}
		}
	}
	JOINT Spine
	{
		OFFSET 0.028270 2.035590 -0.193380 
		CHANNELS 3 Zrotation Yrotation Xrotation
		JOINT Spine1
		{
			OFFSET 0.056720 2.048850 -0.042750 
			CHANNELS 3 Zrotation Yrotation Xrotation
			JOINT Neck1
			{
				OFFSET -0.054170 1.746240 0.172020 
				CHANNELS 3 Zrotation Yrotation Xrotation
				JOINT Head
				{
					OFFSET 0.104070 1.761360 -0.123970 
					CHANNELS 3 Zrotation Yrotation Xrotation
					End Site
					{
						OFFSET 0.000000 0.000000 0.000000 
					}
				}
			}
			JOINT LeftArm
			{
				OFFSET 3.362410 1.200890 -0.311210 
				CHANNELS 3 Zrotation Yrotation Xrotation
				JOINT LeftForeArm
				{
					OFFSET 4.983000 -0.000000 -0.000000 
					CHANNELS 3 Zrotation Yrotation Xrotation
					JOINT LeftHand
					{
						OFFSET 3.483560 -0.000000 -0.000000 
						CHANNELS 3 Zrotation Yrotation Xrotation
						JOINT LeftHandIndex1
						{
							OFFSET 0.715260 -0.000000 -0.000000 
							CHANNELS 3 Zrotation Yrotation Xrotation
							End Site
							{
								OFFSET 0.000000 0.000000 0.000000 
							}
						}
					}
				}
			}
			JOINT RightArm
			{
				OFFSET -3.136600 1.374050 -0.404650 
				CHANNELS 3 Zrotation Yrotation Xrotation
				JOINT RightForeArm
				{
					OFFSET -5.241900 -0.000000 -0.000000 
					CHANNELS 3 Zrotation Yrotation Xrotation
					JOINT RightHand
					{
						OFFSET -3.444170 -0.000000 -0.000000 
						CHANNELS 3 Zrotation Yrotation Xrotation
						JOINT RightHandIndex1
						{
							OFFSET -0.622530 -0.000000 -0.000000 
							CHANNELS 3 Zrotation Yrotation Xrotation
							End Site
							{
								OFFSET 0.000000 0.000000 0.000000 
							}
						}
					}
				}
			}
		}
	}
}
MOTION
Frames: 16
Frame Time: 0.041667
10.554857 17.866159 49.697427 -178.975747 -0.168919 177.777999 -18.976477 -23.600303 -0.914287 -2.383512 8.378981 23.764064 -6.176018 18.505913 -6.317563 3.104200 -10.861800 -31.815300 26.686654 19.062432 0.656373 2.153527 -8.075877 25.602814 5.347488 -22.365618 -22.270363 -0.353900 -3.821900 10.576200 2.624186 1.060820 3.569433 -4.254462 0.140813 -12.126956 8.767494 -5.581575 33.279591 1.213400 -2.350100 12.295300 -89.662001 9.583930 35.580102 24.529263 -24.289072 -6.768583 1.412944 1.045609 11.273882 -7.125000 0.000000 0.000000 85.854695 -6.330751 53.077452 -20.731450 23.846636 -6.034899 1.142186 0.427066 11.337613 7.125000 0.000000 0.000000 
10.557094 17.863804 49.703667 -178.961848 0.228429 177.735829 -18.948941 -23.370248 -0.975568 -2.386977 8.378416 23.774269 -6.173758 18.501011 -6.418456 3.025900 -10.736900 -31.397600 26.682474 19.080839 0.638340 2.138057 -8.093750 25.649413 5.308804 -22.204705 -22.119441 -0.338100 -3.736700 10.337000 2.695789 1.229414 3.569776 -4.235750 0.227337 -12.214678 8.741975 -5.574425 33.256811 1.200400 -2.347700 12.277000 -89.650818 9.600941 35.580641 24.546683 -24.311341 -6.777803 1.416844 1.040824 11.255810 -7.125000 0.000000 0.000000 85.896707 -6.322705 53.000514 -20.697670 23.812695 -6.024587 1.140287 0.426886 11.478604 7.125000 0.000000 0.000000 
10.555916 17.869455 49.700959 -178.958693 -0.211417 177.792522 -18.888621 -23.408342 -1.069270 -2.380335 8.374990 23.757692 -6.057381 18.196124 -6.113473 3.055200 -10.783800 -31.554200 26.694962 19.015773 0.626627 2.144796 -8.087066 25.639650 5.284389 -22.188223 -22.249925 -0.421600 -4.167300 11.547800 2.712962 1.014895 3.537410 -4.185202 0.126905 -12.155889 8.716970 -5.548864 33.278552 1.195600 -2.340100 12.288500 -89.708487 9.564952 35.501288 24.500928 -24.259128 -6.759423 1.409207 1.055271 11.342694 -7.125000 0.000000 0.000000 85.866354 -6.318641 53.018935 -20.709723 23.826466 -6.030977 1.139252 0.428005 11.464600 7.125000 0.000000 0.000000 
10.556740 17.870985 49.705668 -179.021959 0.217589 177.792807 -18.941188 -23.173519 -1.143254 -2.380979 8.389475 23.803868 -6.084329 18.278645 -6.326502 3.006800 -10.706000 -31.294700 26.602284 19.123388 0.601684 2.131877 -8.082999 25.606978 5.281236 -21.967782 -21.716279 -0.442400 -4.267500 11.830500 2.651895 1.186991 3.570747 -4.202296 0.213498 -12.177389 8.714961 -5.510786 33.264023 1.195400 -2.318800 12.284200 -89.697469 9.504125 35.440451 24.451751 -24.203387 -6.732840 1.403472 1.063282 11.432574 -7.125000 0.000000 0.000000 85.838511 -6.282288 53.141089 -20.736668 23.858531 -6.040012 1.139089 0.430066 11.335459 7.125000 0.000000 0.000000 
10.555916 17.871574 49.704020 -179.001359 0.059320 177.893085 -18.852526 -23.173153 -1.288198 -2.373993 8.399087 23.816822 -6.024074 18.118033 -6.187995 2.984500 -10.669900 -31.174700 26.606880 19.178817 0.567038 2.152300 -8.065162 25.545289 5.289313 -22.047835 -21.879035 -0.460900 -4.355000 12.077500 2.559392 1.123996 3.553127 -4.254212 0.175074 -12.067959 8.702121 -5.500307 33.213790 1.180700 -2.308800 12.261200 -89.638553 9.462395 35.440590 24.428312 -24.179050 -6.722082 1.409250 1.062935 11.471579 -7.125000 0.000000 0.000000 85.801729 -6.326673 53.242218 -20.876587 24.022926 -6.102595 1.132830 0.435778 11.123945 7.125000 0.000000 0.000000 
10.556505 17.867924 49.706845 -178.976369 0.135546 177.851760 -18.881324 -23.361124 -1.175179 -2.375751 8.405896 23.836199 -6.104305 18.326314 -6.407771 2.953400 -10.619200 -31.006000 26.642085 19.205608 0.606467 2.158840 -8.057169 25.521558 5.339376 -22.201562 -21.915264 -0.444200 -4.276200 11.855100 2.557633 1.148586 3.580675 -4.275102 0.183443 -12.095886 8.688500 -5.489639 33.283009 1.182000 -2.307100 12.300500 -89.612294 9.416085 35.420624 24.405901 -24.159676 -6.713284 1.416699 1.060719 11.524297 -7.125000 0.000000 0.000000 85.786288 -6.395939 53.232599 -21.020531 24.198169 -6.172089 1.123029 0.440407 11.064998 7.125000 0.000000 0.000000 
10.556270 17.869808 49.710024 -178.926219 0.017637 177.889047 -18.867777 -23.607672 -1.117874 -2.375898 8.408813 23.841541 -6.131471 18.393402 -6.499927 2.940200 -10.597500 -30.934300 26.669184 19.153903 0.552089 2.176497 -8.052707 25.487023 5.440168 -22.562774 -22.135645 -0.404000 -4.080800 11.304100 2.770871 1.089476 3.453267 -4.183249 0.158387 -12.178092 8.518887 -5.451514 33.452667 1.136100 -2.318000 12.378300 -89.733005 9.437791 35.391228 24.386435 -24.127646 -6.691480 1.433693 1.036693 11.537263 -7.125000 0.000000 0.000000 85.672542 -6.517952 53.229045 -21.078165 24.269712 -6.202197 1.118323 0.438773 11.120279 7.125000 0.000000 0.000000 
10.556505 17.868866 49.715322 -178.938870 0.157415 177.816872 -18.908215 -23.548565 -1.079479 -2.373386 8.415915 23.875665 -6.105234 18.336012 -6.584627 2.839800 -10.431200 -30.384600 26.659044 19.110143 0.587365 2.174145 -8.046797 25.482267 5.427676 -22.504218 -22.074184 -0.366800 -3.890500 10.768700 2.802798 1.153484 3.437802 -4.165925 0.191732 -12.294219 8.405165 -5.450372 33.481277 1.086000 -2.326900 12.385100 -89.734887 9.474859 35.469892 24.381426 -24.109944 -6.671583 1.435348 1.019000 11.601429 -7.125000 0.000000 0.000000 85.628920 -6.568907 53.251694 -21.111180 24.308712 -6.210218 1.118759 0.437031 11.109670 7.125000 0.000000 0.000000 
10.556505 17.871103 49.716734 -178.976428 0.249850 177.823414 -18.942362 -23.524002 -1.090951 -2.374662 8.421440 23.890069 -6.117963 18.376139 -6.678756 2.759200 -10.294700 -29.936400 26.619814 19.176600 0.609832 2.174401 -8.037767 25.457891 5.393664 -22.361843 -21.957195 -0.376700 -3.941700 10.912800 2.760142 1.203050 3.425982 -4.170068 0.217938 -12.310951 8.492102 -5.469144 33.418456 1.121500 -2.329300 12.351900 -89.712084 9.490508 35.536558 24.383970 -24.101706 -6.660805 1.425796 1.015804 11.727423 -7.125000 0.000000 0.000000 85.624511 -6.568406 53.259987 -21.119481 24.315866 -6.209130 1.120391 0.435895 11.108468 7.125000 0.000000 0.000000 
10.555916 17.874988 49.717087 -179.002574 0.123181 177.836408 -18.908292 -23.346608 -1.218534 -2.366926 8.428128 23.905646 -6.045215 18.188446 -6.500474 2.827300 -10.410000 -30.315000 26.611689 19.209489 0.645802 2.181647 -8.028878 25.442298 5.410810 -22.452971 -22.081015 -0.387800 -3.998700 11.072900 2.681773 1.129592 3.430400 -4.187776 0.183169 -12.286631 8.692541 -5.486329 33.323544 1.208500 -2.325400 12.302400 -89.681779 9.478978 35.505857 24.394514 -24.109938 -6.659408 1.425944 1.010671 11.683928 -7.125000 0.000000 0.000000 85.640126 -6.518548 53.340331 -21.091054 24.284209 -6.200323 1.119690 0.438643 11.089954 7.125000 0.000000 0.000000 
10.554386 17.875930 49.718736 -178.977109 -0.199099 177.829947 -18.838341 -23.249396 -1.327106 -2.355466 8.430844 23.917888 -5.914337 17.847664 -6.212441 2.876800 -10.492900 -30.588200 26.642950 19.158398 0.683956 2.190741 -8.016340 25.426283 5.359216 -22.381125 -22.256891 -0.427400 -4.195800 11.628200 2.810310 0.978494 3.403512 -4.120405 0.117396 -12.315183 8.724713 -5.478955 33.306129 1.238200 -2.331500 12.288900 -89.787386 9.468839 35.424373 24.382552 -24.099573 -6.660466 1.422287 1.019853 11.678304 -7.125000 0.000000 0.000000 85.523219 -6.524583 53.448933 -21.076779 24.269065 -6.194823 1.119831 0.439164 11.011449 7.125000 0.000000 0.000000 
10.556387 17.878167 49.721796 -178.973411 0.013694 177.842504 -18.806470 -23.192270 -1.344052 -2.363658 8.434321 23.931370 -5.955473 17.956540 -6.486916 2.759000 -10.294300 -29.935200 26.644662 19.224076 0.688625 2.190149 -8.010236 25.409892 5.259891 -22.067134 -22.147825 -0.435200 -4.233300 11.734100 2.721885 1.051531 3.403387 -4.160682 0.147470 -12.336015 8.677030 -5.456534 33.359533 1.212200 -2.316800 12.321000 -89.720192 9.463341 35.358806 24.386001 -24.109372 -6.667090 1.413847 1.032982 11.695519 -7.125000 0.000000 0.000000 85.609575 -6.480898 53.440762 -21.063564 24.255016 -6.188720 1.119819 0.440716 11.010146 7.125000 0.000000 0.000000 
10.555799 17.879226 49.722738 -178.940860 0.096508 177.812179 -18.780756 -23.138947 -1.314861 -2.370364 8.434827 23.936435 -6.049250 18.194393 -6.726173 2.771200 -10.315100 -30.003100 26.665641 19.180365 0.692991 2.195557 -8.011591 25.426124 5.206040 -22.016390 -22.394707 -0.382000 -3.969400 10.990700 2.777725 1.102604 3.432900 -4.149818 0.173965 -12.360486 8.576102 -5.460860 33.348827 1.166900 -2.324700 12.320900 -89.743702 9.437791 35.323826 24.384282 -24.107982 -6.665963 1.414092 1.032627 11.719240 -7.125000 0.000000 0.000000 85.629154 -6.379882 53.386017 -20.924758 24.095073 -6.133478 1.123235 0.440836 11.029294 7.125000 0.000000 0.000000 
10.555445 17.874988 49.723562 -178.940452 0.088849 177.797270 -18.803899 -23.295543 -1.232473 -2.383915 8.432917 23.930285 -6.133050 18.417423 -7.070678 3.003500 -10.700700 -31.277100 26.672569 19.172172 0.690076 2.202608 -8.014801 25.441917 5.222618 -22.169697 -22.672659 -0.324600 -3.661700 10.126800 2.629136 1.122087 3.505072 -4.207043 0.178279 -12.317121 8.543734 -5.552687 33.320302 1.128000 -2.356900 12.324600 -89.626796 9.398890 35.366047 24.409644 -24.135161 -6.672630 1.414744 1.026994 11.733080 -7.125000 0.000000 0.000000 85.824450 -6.144463 53.236430 -20.632191 23.749819 -6.011069 1.132662 0.440890 11.208015 7.125000 0.000000 0.000000 
10.554857 17.872163 49.725681 -178.929448 0.096682 177.794046 -18.817303 -23.423255 -1.174028 -2.401629 8.434159 23.942744 -6.188863 18.580480 -7.576377 3.326500 -11.205700 -32.976800 26.680637 19.176191 0.694272 2.206493 -8.014055 25.436130 5.244883 -22.255051 -22.732890 -0.282100 -3.415700 9.438300 2.660214 1.137602 3.425177 -4.187432 0.185153 -12.389019 8.540042 -5.603863 33.455275 1.130900 -2.385900 12.391400 -89.650298 9.460322 35.339488 24.429375 -24.154875 -6.680011 1.414047 1.023525 11.750003 -7.125000 0.000000 0.000000 85.888494 -6.128532 53.148483 -20.492937 23.583554 -5.947994 1.138765 0.438862 11.286723 7.125000 0.000000 0.000000 
10.554975 17.872987 49.728507 -178.915213 0.217359 177.745978 -18.691913 -22.805125 -1.463423 -2.391673 8.451426 24.010994 -6.054986 18.240521 -7.539073 3.519900 -11.492500 -33.959600 26.704369 19.164626 0.733326 2.206537 -8.009289 25.433161 5.245068 -22.259460 -22.735668 -0.221400 -3.028800 8.359000 2.760547 1.184461 3.424354 -4.149686 0.215145 -12.451557 8.517311 -5.585921 33.501024 1.129900 -2.384000 12.408900 -89.707777 9.474157 35.294619 24.441337 -24.170565 -6.687798 1.417435 1.020453 11.693762 -7.125000 0.000000 0.000000 85.812585 -6.189801 53.158705 -20.519123 23.614918 -5.955450 1.138758 0.438350 11.207677 7.125000 0.000000 0.000000 
